<svg viewBox="0 0 40.000317 40" version="1.1" width="40.000317" height="40" xmlns="http://www.w3.org/2000/svg">
  <path
    style="fill:#ffffff;stroke-width:0.0793901"
    d="m 20.00004,3.6036766 c 5.340256,0 5.972757,0.020403 8.081914,0.1166241 1.949981,0.088996 3.008886,0.414734 3.713712,0.6886299 a 6.196558,6.196558 0 0 1 2.299614,1.4961069 6.196558,6.196558 0 0 1 1.496107,2.2996145 c 0.273896,0.704746 0.599713,1.763731 0.68863,3.713711 0.09622,2.108999 0.116624,2.7415 0.116624,8.081915 0,5.340415 -0.0204,5.972757 -0.116624,8.081915 -0.089,1.94998 -0.414813,3.008885 -0.68863,3.713711 a 6.62328,6.62328 0 0 1 -3.795721,3.795721 c -0.704746,0.273896 -1.763731,0.599713 -3.713712,0.68863 -2.108601,0.09622 -2.741102,0.116624 -8.081914,0.116624 -5.340812,0 -5.973075,-0.0204 -8.081915,-0.116624 -1.94998,-0.089 -3.008886,-0.414813 -3.713711,-0.68863 A 6.1964787,6.1964787 0 0 1 5.9047993,34.095518 6.1966374,6.1966374 0 0 1 4.4086924,31.795904 c -0.2738959,-0.704746 -0.599713,-1.763731 -0.6886299,-3.713711 -0.096221,-2.10892 -0.1166241,-2.7415 -0.1166241,-8.081915 0,-5.340415 0.020403,-5.972757 0.1166241,-8.081915 0.088996,-1.94998 0.414734,-3.008886 0.6886299,-3.713711 A 6.196558,6.196558 0 0 1 5.9049581,5.9049581 6.1966374,6.1966374 0 0 1 8.204572,4.4088512 c 0.704747,-0.2738959 1.763731,-0.599713 3.713712,-0.6886299 2.108998,-0.096221 2.7415,-0.1166241 8.081914,-0.1166241 M 20.000198,0 C 14.568485,0 13.887159,0.023023 11.754264,0.1203554 9.625418,0.2175294 8.171626,0.5555721 6.899478,1.0500138 A 9.8037278,9.8037278 0 0 0 3.3570908,3.3568527 9.8037278,9.8037278 0 0 0 1.0496168,6.89924 C 0.5555721,8.171467 0.2175289,9.625259 0.1207524,11.754105 0.0230231,13.887 0,14.568326 0,20.00004 c 0,5.431713 0.023023,6.113039 0.1207524,8.245934 0.097173,2.128847 0.4352166,3.582639 0.9296583,4.854786 a 9.8038072,9.8038072 0 0 0 2.3068389,3.542387 9.803569,9.803569 0 0 0 3.5423874,2.306839 c 1.272227,0.494442 2.726019,0.832485 4.854786,0.929659 C 13.887635,39.976975 14.568723,40 20.000357,40 c 5.431634,0 6.11304,-0.02302 8.245935,-0.120355 2.128846,-0.09717 3.582638,-0.435217 4.854786,-0.929659 a 10.226798,10.226798 0 0 0 5.849226,-5.849226 c 0.494441,-1.272227 0.832485,-2.726019 0.929658,-4.854786 0.09733,-2.133212 0.120356,-2.8143 0.120356,-8.245934 0,-5.431634 -0.02302,-6.11304 -0.120356,-8.245935 C 39.782792,9.625259 39.444745,8.171467 38.950304,6.899319 A 9.803569,9.803569 0 0 0 36.643465,3.356932 9.8036484,9.8036484 0 0 0 33.100839,1.0496168 C 31.828613,0.5555721 30.374821,0.2175289 28.245974,0.1207524 26.113079,0.0230231 25.431753,0 20.00004,0 v 0 z"/>
  <path
    style="fill:#ffffff;stroke-width:0.0793901"
    d="M 20.00004,9.729736 A 10.270304,10.270304 0 1 0 30.270343,20.00004 10.270304,10.270304 0 0 0 20.00004,9.729736 Z m 0,16.936931 a 6.666627,6.666627 0 1 1 6.666706,-6.666627 6.6667064,6.6667064 0 0 1 -6.666706,6.666627 z"/>
  <circle
    style="fill:#ffffff;stroke-width:0.0793901"
    cx="30.676107"
    cy="9.3239727"
    r="2.3999634"/>
</svg>
