<svg width="57.691" height="40" version="1.1" viewBox="0 0 57.691 40" xmlns="http://www.w3.org/2000/svg">
 <g transform="translate(-70.684 -200.92)">
  <path d="m89.197 240.88c-0.87078-0.0505-4.0854-0.16828-7.1435-0.26173l-5.5603-0.16992-1.4997-0.73831c-1.6116-0.79337-2.568-1.7686-3.3591-3.4251-0.40425-0.84649-0.53023-1.7132-0.72421-4.9828-0.30153-5.0824-0.30153-15.726 0-20.808 0.26657-4.4932 0.57486-5.482 2.2228-7.13 1.7939-1.7939 2.4663-1.9678 8.6001-2.2246 6.9065-0.28905 27.994-0.29197 34.944-5e-3 4.9877 0.20606 5.393 0.25546 6.5787 0.80194 2.4918 1.1485 3.7621 3.053 4.3712 6.5538 1.13 6.4951 0.94472 21.736-0.32146 26.438-0.61599 2.2876-1.9951 3.9613-4.0693 4.9385-1.1639 0.54832-1.5424 0.59657-5.8806 0.74957-5.6755 0.20017-25.978 0.39051-28.159 0.26401zm11.402-16.363c3.3607-1.9282 6.1118-3.5566 6.1134-3.6188 3e-3 -0.12391-12.3-7.2377-12.518-7.2377-0.07389 0-0.13434 3.2654-0.13434 7.2565 0 4.4713 0.08224 7.2276 0.21428 7.1811 0.11785-0.0415 2.964-1.653 6.3247-3.5811z" fill="#fefefe" stroke-width=".22618"/>
 </g>
</svg>
